HIERARCHY
ROOT Hips
{
	OFFSET 0.000000 0.000000 0.000000
	CHANNELS 6 Xposition Yposition Zposition Zrotation Yrotation Xrotation 
	JOINT LeftUpLeg_virtual
	{
		OFFSET 0.000000 0.000000 0.000000
		CHANNELS 3 Zrotation Yrotation Xrotation
		JOINT LeftUpLeg
		{
			OFFSET 10.205400 -3.823500 0.155100
			CHANNELS 3 Zrotation Yrotation Xrotation
			JOINT LeftLeg
			{
				OFFSET 0.708757 -12.982077 0.567790
				CHANNELS 3 Zrotation Yrotation Xrotation
				JOINT LeftFoot
				{
					OFFSET -0.708756 -10.717838 -2.184338
					CHANNELS 3 Zrotation Yrotation Xrotation
					JOINT LeftToeBase
					{
						OFFSET 0.108149 -7.191104 7.560241
						CHANNELS 3 Zrotation Yrotation Xrotation
						End Site
						{
							OFFSET 0.000000 0.000000 0.000000
						}
					}
				}
			}
		}
	}
	JOINT RightUpLeg_virtual
	{
		OFFSET 0.000000 0.000000 0.000000
		CHANNELS 3 Zrotation Yrotation Xrotation
		JOINT RightUpLeg
		{
			OFFSET -10.205400 -3.823500 0.005500
			CHANNELS 3 Zrotation Yrotation Xrotation
			JOINT RightLeg
			{
				OFFSET -0.708756 -12.982134 0.610632
				CHANNELS 3 Zrotation Yrotation Xrotation
				JOINT RightFoot
				{
					OFFSET 0.708754 -10.717769 -1.945823
					CHANNELS 3 Zrotation Yrotation Xrotation
					JOINT RightToeBase
					{
						OFFSET -0.108140 -7.191069 7.372968
						CHANNELS 3 Zrotation Yrotation Xrotation
						End Site
						{
							OFFSET 0.000000 0.000000 0.000000
						}
					}
				}
			}
		}
	}
	JOINT Spine_virtual
	{
		OFFSET 0.000000 0.000000 0.000000
		CHANNELS 3 Zrotation Yrotation Xrotation
		JOINT Spine
		{
			OFFSET 0.000000 6.876099 0.125700
			CHANNELS 3 Zrotation Yrotation Xrotation
			JOINT Spine1
			{
				OFFSET 0.000000 8.022060 0.146608
				CHANNELS 3 Zrotation Yrotation Xrotation
				JOINT Spine2
				{
					OFFSET 0.000000 9.168068 0.167552
					CHANNELS 3 Zrotation Yrotation Xrotation
					JOINT Neck_virtual
					{
						OFFSET 0.000000 0.000000 0.000000
						CHANNELS 3 Zrotation Yrotation Xrotation
						JOINT Neck
						{
							OFFSET 0.000000 10.314075 0.188496
							CHANNELS 3 Zrotation Yrotation Xrotation
							JOINT Head
							{
								OFFSET 0.000000 7.643700 -2.377400
								CHANNELS 3 Zrotation Yrotation Xrotation
								End Site
								{
									OFFSET 0.000000 0.000000 0.000000
								}
							}
						}
					}
					JOINT LeftShoulder_virtual
					{
						OFFSET 0.000000 0.000000 0.000000
						CHANNELS 3 Zrotation Yrotation Xrotation
						JOINT LeftShoulder
						{
							OFFSET 4.392200 8.824978 0.174984
							CHANNELS 3 Zrotation Yrotation Xrotation
							JOINT LeftArm
							{
								OFFSET 8.771219 -2.981674 -0.026999
								CHANNELS 3 Zrotation Yrotation Xrotation
								JOINT LeftForeArm
								{
									OFFSET 8.512804 0.000000 -0.000000
									CHANNELS 3 Zrotation Yrotation Xrotation
									JOINT LeftHand
									{
										OFFSET 18.484802 0.000000 -0.000000
										CHANNELS 3 Zrotation Yrotation Xrotation
										End Site
										{
											OFFSET 0.000000 0.000000 0.000000
										}
									}
								}
							}
						}
					}
					JOINT RightShoulder_virtual
					{
						OFFSET 0.000000 0.000000 0.000000
						CHANNELS 3 Zrotation Yrotation Xrotation
						JOINT RightShoulder
						{
							OFFSET -4.392200 8.824993 0.141379
							CHANNELS 3 Zrotation Yrotation Xrotation
							JOINT RightArm
							{
								OFFSET -8.771282 -2.981682 -0.094208
								CHANNELS 3 Zrotation Yrotation Xrotation
								JOINT RightForeArm
								{
									OFFSET -8.494598 0.000000 0.000000
									CHANNELS 3 Zrotation Yrotation Xrotation
									JOINT RightHand
									{
										OFFSET -18.483803 0.000000 0.000001
										CHANNELS 3 Zrotation Yrotation Xrotation
										End Site
										{
											OFFSET 0.000000 0.000000 0.000000
										}
									}
								}
							}
						}
					}
				}
			}
		}
	}
}
MOTION
Frames: 7
Frame Time: 0.033333
-2.596021 36.650848 18.781433 179.857705 20.509982 -179.759828 -1.679422 -3.451988 8.098219 -8.962960 9.306884 -17.012427 12.667944 8.415091 21.487765 -4.130422 -0.502117 4.427460 0.000000 0.000000 0.000000 1.108803 -1.604966 4.834997 0.115907 -10.915591 -20.085030 -7.522051 -1.018495 16.763174 5.696532 1.905705 12.341924 0.000000 0.000000 0.000000 1.918016 -0.896587 -0.533486 -4.439479 1.125486 -21.763728 1.540823 -4.433556 10.263996 -0.005509 0.034110 0.075942 1.575378 -2.895120 13.003570 1.088827 -0.015532 18.320960 0.000000 0.000000 0.000000 2.904855 -1.956231 8.944567 -2.464759 -3.425314 -5.589171 5.111897 7.644845 -43.904299 8.463934 -57.350380 2.459937 0.000000 0.000000 0.000000 -0.509233 -1.110962 8.349292 10.209734 9.177188 -1.686689 -13.879514 9.698980 -26.158235 -8.976593 47.761238 7.361738 0.000000 0.000000 0.000000 
-1.903646 36.701859 18.602999 179.937686 22.101456 -179.636803 -1.745690 -3.357643 7.914180 -7.463385 10.002986 -15.922042 12.726924 7.647580 21.819866 -4.650477 -0.902797 4.436707 0.000000 0.000000 0.000000 0.713585 -1.362503 4.433965 0.308113 -6.733953 -19.364092 -7.061402 1.761475 16.201578 6.378177 2.310921 13.596046 0.000000 0.000000 0.000000 1.695873 -0.998780 -1.040113 -4.367076 0.752860 -22.011007 1.617284 -4.424076 10.295428 -0.002623 0.062724 0.087711 1.637616 -2.922707 13.019333 1.170705 0.216584 18.596297 0.000000 0.000000 0.000000 2.901852 -1.973952 8.958412 -2.397393 -3.665903 -5.747049 5.907670 6.961519 -42.783294 8.497238 -55.868366 2.387949 0.000000 0.000000 0.000000 -0.507140 -1.118647 8.344796 10.057112 9.319606 -1.756551 -13.495698 8.865299 -26.656579 -8.980404 46.835826 7.103378 0.000000 0.000000 0.000000 
-1.141283 36.764099 18.390137 179.990047 23.862820 -179.693152 -1.909535 -3.111961 7.888707 -5.825058 10.624148 -14.648251 12.871815 6.705571 22.093065 -5.282140 -1.312805 4.648123 0.000000 0.000000 0.000000 0.485085 -1.151600 4.116803 1.317016 -4.764848 -18.500633 -6.431493 5.529623 15.409134 6.480846 2.390769 14.527684 0.000000 0.000000 0.000000 1.461518 -0.948856 -1.447992 -4.292127 0.367233 -22.086771 1.664303 -4.516116 10.289820 -0.004959 0.063515 0.053714 1.632012 -2.864188 13.097378 1.164450 0.327107 18.912835 0.000000 0.000000 0.000000 2.950515 -1.944487 8.956462 -2.397920 -3.786460 -5.812053 6.524211 6.329988 -41.520112 8.328128 -54.237002 2.466057 0.000000 0.000000 0.000000 -0.458876 -1.133042 8.331703 9.888983 9.476523 -1.865352 -12.864351 7.970859 -27.047406 -8.996578 46.062919 6.809304 0.000000 0.000000 0.000000 
-0.324929 36.825329 18.164492 179.958259 25.732461 -179.574115 -2.292046 -2.804242 7.952855 -4.058206 11.241929 -13.472757 13.032706 5.852633 22.320136 -5.738603 -1.675288 4.885074 0.000000 0.000000 0.000000 0.359088 -0.928017 4.012258 2.648651 -3.704974 -17.594595 -6.467051 5.306046 14.747159 5.686078 1.952561 14.224808 0.000000 0.000000 0.000000 1.205257 -0.874726 -1.841108 -4.223762 0.035819 -22.228195 1.735028 -4.555330 10.262101 -0.003406 0.053892 0.083519 1.779827 -2.949552 13.077466 1.332918 0.512868 19.140560 0.000000 0.000000 0.000000 2.996954 -1.986327 8.914965 -2.482781 -3.884305 -5.845313 6.782949 6.005510 -40.313371 8.146191 -52.671598 2.481306 0.000000 0.000000 0.000000 -0.417823 -1.139940 8.258152 9.687635 9.568228 -1.686958 -12.126300 6.979210 -27.343102 -9.122441 45.587650 6.328442 0.000000 0.000000 0.000000 
0.533170 36.869663 17.963530 -179.931717 27.744068 -179.226541 -2.540231 -2.450236 8.073699 -2.316461 11.799300 -12.466040 13.182672 5.096481 22.587016 -6.075875 -1.905273 5.212193 0.000000 0.000000 0.000000 0.409393 -0.605911 4.061055 4.136199 -2.823366 -16.831895 -6.513108 4.317169 13.960660 5.115146 1.812635 13.990105 0.000000 0.000000 0.000000 1.024049 -0.756900 -2.171655 -4.042020 -0.344796 -22.454206 1.835693 -4.709500 10.216369 -0.002733 -0.019391 0.158204 1.820198 -2.886517 13.086905 1.339347 0.587833 19.189323 0.000000 0.000000 0.000000 2.995699 -1.976353 8.929763 -2.631719 -3.734586 -5.759530 6.809339 5.862368 -39.186923 8.323883 -51.516087 2.102202 0.000000 0.000000 0.000000 -0.451121 -1.185833 8.296270 9.555664 9.719801 -1.866006 -11.395990 6.146307 -27.329093 -9.056791 45.507860 6.036311 0.000000 0.000000 0.000000 
1.406481 36.887924 17.834423 -179.978039 30.091792 -179.109362 -2.984030 -1.804038 8.393489 -0.496098 12.245643 -11.542446 13.173327 4.301961 23.058954 -6.158269 -1.834378 5.594252 0.000000 0.000000 0.000000 0.338758 -0.108998 4.200002 5.626184 -1.944621 -16.189766 -6.560589 3.312006 13.231355 4.507945 1.836098 13.867131 0.000000 0.000000 0.000000 0.808876 -0.562098 -2.191629 -3.905502 -0.663017 -22.580180 1.880547 -4.746230 10.161445 -0.035948 0.025172 0.100598 1.973255 -3.109345 13.083981 1.369583 0.696569 19.169172 0.000000 0.000000 0.000000 3.113141 -2.083252 8.991503 -2.713026 -3.534676 -5.783397 6.672910 5.819218 -38.304097 7.906215 -50.845219 2.218626 0.000000 0.000000 0.000000 -0.357888 -1.319980 8.296274 9.678199 9.727568 -1.772415 -10.808500 5.500144 -27.131648 -9.108823 45.787993 5.710633 0.000000 0.000000 0.000000 
2.271369 36.882565 17.806578 -179.858770 32.640429 -178.820103 -3.297490 -1.148429 8.680445 1.286132 12.468410 -10.878938 13.059998 3.500757 23.740360 -6.020729 -1.419637 6.090373 0.000000 0.000000 0.000000 0.440047 0.380690 4.288021 7.163773 -0.955793 -15.700199 -6.623901 2.380188 12.512040 3.792741 1.928345 13.936921 0.000000 0.000000 0.000000 0.687676 -0.090068 -2.182899 -3.730706 -1.003986 -22.735898 1.929456 -4.900126 10.165831 -0.024727 -0.012556 0.180838 1.966149 -3.329411 13.045929 1.187407 0.748148 19.097434 0.000000 0.000000 0.000000 3.132258 -2.237957 8.984890 -2.763577 -3.302612 -5.760360 6.531283 5.672263 -37.834385 7.798962 -50.423810 1.960470 0.000000 0.000000 0.000000 -0.399726 -1.476012 8.319948 9.967233 9.709661 -1.605648 -10.498002 5.028063 -26.691816 -9.140226 46.352898 5.478660 0.000000 0.000000 0.000000 
